<svg width="52" height="52" viewBox="0 0 52 52" fill="none" xmlns="http://www.w3.org/2000/svg">
<circle cx="26" cy="26" r="26" fill="#6253F5"/>
<path d="M25.5703 43.1133C25.1484 43.1133 24.7266 43.0957 24.2871 43.0605L23.3379 44.8711C23.0918 45.3281 22.7051 45.5391 22.1953 45.4512C21.7207 45.3457 21.4043 45.0293 21.334 44.5195L21.0527 42.498C20.2266 42.2695 19.418 41.9883 18.6445 41.6191L17.1152 42.9902C16.7637 43.3418 16.3066 43.3945 15.8496 43.1309C15.4277 42.8848 15.252 42.4629 15.3574 41.9707L15.7793 39.9844C15.0938 39.4746 14.4258 38.9297 13.8105 38.3145L11.9297 39.1055C11.4727 39.2812 11.0332 39.1934 10.6816 38.7891C10.3828 38.4199 10.3301 37.9629 10.6113 37.5234L11.7012 35.8184C11.209 35.0977 10.7871 34.3594 10.418 33.5859L8.37891 33.6562C7.86914 33.6738 7.5 33.4453 7.30664 32.9531C7.16602 32.4785 7.27148 32.0391 7.67578 31.7402L9.29297 30.4922C9.08203 29.666 8.92383 28.8223 8.85352 27.9434L6.90234 27.3281C6.41016 27.1699 6.14648 26.8184 6.14648 26.3086C6.14648 25.7988 6.41016 25.4297 6.90234 25.2891L8.85352 24.6738C8.92383 23.7949 9.08203 22.9512 9.29297 22.125L7.67578 20.877C7.27148 20.5781 7.13086 20.1387 7.32422 19.6641C7.5 19.1895 7.86914 18.9258 8.39648 18.9609L10.418 19.0312C10.7871 18.2754 11.209 17.5195 11.7012 16.8164L10.6113 15.0938C10.3301 14.6543 10.3477 14.1973 10.6816 13.8281C11.0156 13.4414 11.4727 13.3184 11.9297 13.5117L13.8105 14.2852C14.4258 13.6875 15.0762 13.1426 15.7793 12.6504L15.3574 10.6465C15.252 10.1543 15.4102 9.73242 15.8496 9.48633C16.3066 9.24023 16.7637 9.27539 17.1328 9.62695L18.627 10.998C19.4004 10.6465 20.209 10.3477 21.0352 10.1016L21.334 8.08008C21.4043 7.58789 21.7031 7.25391 22.2129 7.16602C22.6875 7.0957 23.0918 7.28906 23.3379 7.74609L24.2871 9.53906C24.7266 9.52148 25.1484 9.50391 25.5703 9.50391C26.0098 9.50391 26.4316 9.52148 26.8535 9.53906L27.8203 7.72852C28.0488 7.28906 28.4531 7.07812 28.9629 7.16602C29.4375 7.27148 29.7539 7.58789 29.8066 8.08008L30.0879 10.1016C30.9316 10.3477 31.7402 10.6289 32.4961 10.9805L34.0254 9.62695C34.3945 9.29297 34.8516 9.22266 35.3086 9.48633C35.7305 9.73242 35.9062 10.1367 35.8008 10.6465L35.3613 12.6328C36.0469 13.125 36.7148 13.6699 37.3301 14.2852L39.2285 13.5117C39.6855 13.3359 40.125 13.4238 40.4766 13.8105C40.7754 14.1973 40.8105 14.6543 40.5293 15.0938L39.457 16.7988C39.9316 17.502 40.3535 18.2578 40.7402 19.0137L42.7617 18.9609C43.2715 18.9434 43.6582 19.1719 43.834 19.6641C43.9922 20.1387 43.8867 20.5781 43.4648 20.877L41.8477 22.125C42.0762 22.9512 42.2168 23.7949 42.3047 24.6738L44.2383 25.2891C44.7305 25.4297 45.0117 25.7988 45.0117 26.3086C45.0117 26.8184 44.7305 27.1699 44.2383 27.3281L42.3047 27.9434C42.2168 28.8223 42.0762 29.666 41.8477 30.4922L43.4824 31.7402C43.8867 32.0391 44.0098 32.4785 43.834 32.9355C43.6582 33.4277 43.2715 33.6738 42.7617 33.6562L40.7402 33.5859C40.3535 34.3418 39.9316 35.0801 39.457 35.8008L40.5469 37.5234C40.8281 37.9629 40.793 38.4023 40.459 38.7891C40.125 39.1758 39.6855 39.2812 39.2109 39.1055L37.3301 38.332C36.7148 38.9121 36.0645 39.4746 35.3613 39.9668L35.8008 41.9707C35.9062 42.4629 35.7305 42.8848 35.291 43.1309C34.8516 43.3594 34.3945 43.3418 34.0254 42.9902L32.5137 41.6191C31.7402 41.9707 30.9492 42.2695 30.1055 42.498L29.8066 44.5371C29.7539 45.0293 29.4551 45.3633 28.9453 45.4512C28.4531 45.5039 28.0488 45.3281 27.8203 44.8711L26.8535 43.0605C26.4316 43.0957 26.0098 43.1133 25.5703 43.1133ZM25.5879 21.7031C27.6973 21.7031 29.4902 23.127 30.0176 25.0781H39.4043C38.7891 17.9766 32.8301 12.4219 25.5703 12.4219C23.4434 12.4219 21.4219 12.8965 19.6113 13.7578L24.3398 21.8613C24.7266 21.7559 25.1484 21.7031 25.5879 21.7031ZM11.6836 26.3086C11.6836 30.9141 13.916 34.9922 17.3613 37.5234L22.2656 29.5078C21.4746 28.6816 20.9824 27.5391 20.9824 26.3086C20.9824 25.0781 21.457 23.9707 22.2305 23.1445L17.4668 15.0234C13.9688 17.5371 11.6836 21.6504 11.6836 26.3086ZM25.5879 28.2773C26.6777 28.2773 27.5566 27.3984 27.5566 26.3086C27.5566 25.2188 26.6777 24.3398 25.5879 24.3398C24.498 24.3398 23.6191 25.2188 23.6191 26.3086C23.6191 27.3984 24.498 28.2773 25.5879 28.2773ZM25.5703 40.1953C32.8477 40.1953 38.8066 34.623 39.4219 27.5039H30.0352C29.5078 29.4727 27.7148 30.9141 25.5879 30.9141C25.166 30.9141 24.7617 30.8613 24.375 30.7559L19.4883 38.7891C21.334 39.6855 23.3906 40.1953 25.5703 40.1953Z" fill="white"/>
</svg>
